<?xml version="1.0" standalone="no"?><!DOCTYPE svg PUBLIC "-//W3C//DTD SVG 1.1//EN" "http://www.w3.org/Graphics/SVG/1.1/DTD/svg11.dtd"><svg t="1651397963415" class="icon" viewBox="0 0 1560 1024" version="1.1" xmlns="http://www.w3.org/2000/svg" p-id="2823" xmlns:xlink="http://www.w3.org/1999/xlink" width="304.6875" height="200"><defs><style type="text/css">@font-face { font-family: feedback-iconfont; src: url("//at.alicdn.com/t/font_1031158_u69w8yhxdu.woff2?t=1630033759944") format("woff2"), url("//at.alicdn.com/t/font_1031158_u69w8yhxdu.woff?t=1630033759944") format("woff"), url("//at.alicdn.com/t/font_1031158_u69w8yhxdu.ttf?t=1630033759944") format("truetype"); }
</style></defs><path d="M141.409524 0h1275.123809C1496.990476 0 1560.380952 63.390476 1560.380952 138.971429v746.057142c0 78.019048-63.390476 138.971429-141.409523 138.971429H141.409524C63.390476 1024 0 960.609524 0 885.028571V138.971429C0 63.390476 63.390476 0 141.409524 0z" fill="#008F3E" p-id="2824"></path><path d="M97.52381 512L780.190476 0l682.666667 512-682.666667 512L97.52381 512z" fill="#F8C300" p-id="2825"></path><path d="M441.295238 512a341.333333 338.895238 90 1 0 677.790476 0 341.333333 338.895238 90 1 0-677.790476 0Z" fill="#28166F" p-id="2826"></path><path d="M1084.952381 682.666667c9.752381-19.504762 17.066667-41.447619 21.942857-63.390477-102.4-234.057143-373.028571-341.333333-604.647619-238.933333l-29.257143 14.628572c-7.314286 17.066667-14.628571 34.133333-19.504762 51.2 226.742857-114.590476 502.247619-24.380952 616.838096 204.8 4.87619 9.752381 9.752381 19.504762 14.628571 31.695238z" fill="#FFFFFF" p-id="2827"></path></svg>