<?xml version="1.0" standalone="no"?><!DOCTYPE svg PUBLIC "-//W3C//DTD SVG 1.1//EN" "http://www.w3.org/Graphics/SVG/1.1/DTD/svg11.dtd"><svg t="1651399454854" class="icon" viewBox="0 0 1560 1024" version="1.1" xmlns="http://www.w3.org/2000/svg" p-id="13351" xmlns:xlink="http://www.w3.org/1999/xlink" width="304.6875" height="200"><defs><style type="text/css">@font-face { font-family: feedback-iconfont; src: url("//at.alicdn.com/t/font_1031158_u69w8yhxdu.woff2?t=1630033759944") format("woff2"), url("//at.alicdn.com/t/font_1031158_u69w8yhxdu.woff?t=1630033759944") format("woff"), url("//at.alicdn.com/t/font_1031158_u69w8yhxdu.ttf?t=1630033759944") format("truetype"); }
</style></defs><path d="M141.409524 0h1275.123809C1496.990476 0 1560.380952 63.390476 1560.380952 138.971429v746.057142c0 78.019048-63.390476 138.971429-141.409523 138.971429H141.409524C63.390476 1024 0 960.609524 0 885.028571V138.971429C0 63.390476 63.390476 0 141.409524 0z" fill="#009530" p-id="13352"></path><path d="M668.038095 219.428571s-2.438095 0-4.87619 2.438096c-4.87619 2.438095-12.190476 12.190476-12.190476 21.942857 0 4.87619-2.438095 4.87619 2.438095 9.752381 2.438095 4.87619 4.87619 2.438095 9.752381 0 2.438095-2.438095 4.87619-2.438095 4.87619-7.314286 2.438095-7.314286-7.314286 2.438095-7.314285-4.87619-2.438095-7.314286 2.438095-9.752381 7.314285-14.628572 2.438095-4.87619 2.438095-7.314286 0-7.314286z m78.019048 0c-2.438095 0-2.438095 2.438095-4.876191 7.314286s-9.752381 12.190476-4.87619 26.819048c4.87619 9.752381 7.314286 24.380952 4.87619 41.447619-2.438095 4.87619-4.87619 7.314286-7.314285 12.190476-4.87619 7.314286-12.190476 4.87619-17.066667 2.438095-4.87619-2.438095-7.314286-4.87619-9.752381-14.628571 0-14.628571 2.438095-41.447619-2.438095-46.32381-4.87619-7.314286-9.752381-4.87619-14.628572-2.438095-14.628571 12.190476-21.942857 34.133333-24.380952 51.2-4.87619 12.190476-7.314286 9.752381-9.752381 4.876191-7.314286-7.314286-7.314286-58.514286-17.066667-48.761905-14.628571 39.009524 7.314286 82.895238 21.942858 78.019047 9.752381 4.87619 17.066667-17.066667 21.942857-39.009523 2.438095-7.314286 4.87619-7.314286 7.314285-4.876191 0 29.257143 2.438095 36.571429 9.752381 46.32381 17.066667 12.190476 31.695238 2.438095 31.695238 0l12.190477-12.190477c2.438095-2.438095 7.314286-2.438095 12.190476 0 4.87619 4.87619 2.438095 9.752381 12.190476 14.628572 7.314286 2.438095 21.942857 0 26.819048-4.876191 4.87619-7.314286 4.87619-12.190476 7.314285-14.628571 2.438095-4.87619 9.752381-2.438095 9.752381 0s-4.87619 4.87619-2.438095 9.752381c4.87619 2.438095 4.87619 0 7.314286 0 9.752381-4.87619 14.628571-21.942857 14.628571-21.942857 0-7.314286-2.438095-7.314286-7.314286-4.876191-2.438095 2.438095-2.438095 2.438095-7.314285 4.876191-4.87619 0-12.190476 2.438095-17.066667-2.438095-4.87619-7.314286-4.87619-17.066667-7.314286-26.819048 0 0-4.87619-12.190476 0-12.190476 2.438095 0 7.314286 2.438095 9.752381-2.438096 2.438095-4.87619-4.87619-17.066667-12.190476-24.380952-4.87619-4.87619-12.190476-7.314286-19.504762 0-4.87619 4.87619-4.87619 9.752381-4.87619 14.628572 0 4.87619 0 12.190476 4.87619 19.504761 4.87619 9.752381 12.190476 21.942857 9.752381 39.009524 0 0-4.87619 7.314286-14.628571 7.314286-4.87619 0-9.752381-2.438095-12.190476-26.819048-2.438095-17.066667 0-41.447619-7.314286-53.638095 2.438095-14.628571 2.438095-17.066667 0-17.066667z m-24.380953 2.438096c-2.438095 0-4.87619 2.438095-7.314285 7.314285-2.438095 4.87619-4.87619 24.380952-2.438095 24.380953-2.438095 4.87619 7.314286 9.752381 9.75238 0 4.87619-14.628571 4.87619-19.504762 4.876191-26.819048-2.438095-4.87619-2.438095-4.87619-4.876191-4.87619z m87.771429 0c-2.438095 0-4.87619 2.438095-4.87619 4.87619v19.504762c0 4.87619 7.314286 12.190476 9.752381 17.066667 14.628571 21.942857 29.257143 41.447619 43.885714 63.390476 2.438095 17.066667 4.87619 31.695238 4.87619 46.323809 2.438095 34.133333 2.438095 78.019048 0 112.152381 7.314286 0 17.066667-9.752381 19.504762-26.819047 2.438095-21.942857 0-65.828571 0-78.019048v-17.066667c17.066667 26.819048 31.695238 56.07619 48.761905 87.771429 4.87619-2.438095 4.87619-36.571429 0-39.009524-12.190476-26.819048-29.257143-53.638095-36.571429-65.828571-2.438095-4.87619-9.752381-14.628571-17.066666-26.819048-2.438095-17.066667-2.438095-31.695238-4.876191-36.571428-2.438095-17.066667 7.314286 2.438095 4.876191-9.752381-2.438095-17.066667-12.190476-31.695238-24.380953-46.32381-4.87619-4.87619-4.87619-7.314286-9.752381 2.438095-2.438095 7.314286-2.438095 14.628571-2.438095 21.942858-2.438095-2.438095-2.438095-4.87619-7.314286-7.314286-9.752381-9.752381-9.752381-9.752381-19.504761-17.066667 4.87619-2.438095 0-4.87619-4.876191-4.87619z m265.752381 2.438095s-2.438095 0-4.87619 2.438095-4.87619 7.314286-4.876191 12.190476c0 9.752381 2.438095 19.504762 2.438095 29.257143v4.876191c0-2.438095-2.438095-2.438095-2.438095-2.438096-19.504762-19.504762 9.752381-2.438095-2.438095-19.504761-9.752381-12.190476-12.190476-14.628571-21.942857-21.942858-4.87619-2.438095-7.314286-7.314286-9.752381 0v24.380953c0 4.87619 4.87619 12.190476 7.314285 14.628571 12.190476 14.628571 24.380952 31.695238 39.009524 48.761905 2.438095 34.133333 2.438095 65.828571 7.314286 102.4 0 14.628571-4.87619 34.133333-9.752381 36.571429 0 0-7.314286 4.87619-12.190476 0-2.438095-2.438095-17.066667-21.942857-17.066667-21.942858-7.314286-4.87619-12.190476-4.87619-14.628571 0-12.190476 12.190476-19.504762 36.571429-26.819048 51.2-2.438095 2.438095-9.752381 7.314286-14.628571 0-17.066667-24.380952-7.314286-58.514286-9.752381-51.2-17.066667 17.066667-9.752381 48.761905-4.876191 53.638096 4.87619 9.752381 9.752381 17.066667 19.504762 21.942857 9.752381 7.314286 17.066667 2.438095 21.942857-2.438095 9.752381-9.752381 9.752381-34.133333 14.628572-39.009524 2.438095-9.752381 9.752381-7.314286 14.628571-2.438096 4.87619 4.87619 7.314286 9.752381 14.628572 12.190477 9.752381 7.314286 19.504762 9.752381 29.257142 2.438095 7.314286-4.87619 12.190476-9.752381 14.628572-19.504762 4.87619-12.190476 2.438095-73.142857 2.438095-109.714286 7.314286 9.752381 12.190476 19.504762 19.504762 29.257143 2.438095 29.257143 4.87619 60.952381 2.438095 90.209524 0 4.87619 19.504762-17.066667 19.504762-26.819048v-26.819047c9.752381 17.066667 19.504762 31.695238 29.257143 48.761904 4.87619-2.438095 4.87619-34.133333 0-39.009523-9.752381-17.066667-21.942857-34.133333-31.695238-46.32381-2.438095-17.066667-4.87619-36.571429-4.876191-43.885714-2.438095-9.752381-2.438095-24.380952-7.314285-34.133333 0-4.87619-2.438095-19.504762-2.438096-19.504762 0-2.438095 4.87619 0 7.314286-2.438096s-9.752381-39.009524-17.066666-48.761904c-2.438095-4.87619-7.314286-2.438095-12.190477 4.87619-4.87619 4.87619-2.438095 17.066667-2.438095 26.819048 4.87619 26.819048 9.752381 56.07619 14.628572 82.895238-7.314286-9.752381-14.628571-21.942857-24.380953-34.133334v-4.87619s0-21.942857-2.438095-26.819048c0-2.438095 0-2.438095 2.438095-2.438095 2.438095 2.438095 2.438095 2.438095 4.876191 2.438095s4.87619-2.438095 2.438095-7.314285c-7.314286-14.628571-14.628571-26.819048-21.942857-41.447619l-7.314286-7.314286z m-682.666667 2.438095c-4.87619 0-9.752381 2.438095-7.314285 7.314286 0 2.438095 7.314286 12.190476 9.752381 17.066667 2.438095 2.438095-2.438095 14.628571 2.438095 17.066666 2.438095 0 7.314286-7.314286 7.314286-17.066666 0-7.314286 0-21.942857-12.190477-24.380953z m777.752381 0l-4.87619 4.876191c-4.87619 7.314286-4.87619 19.504762-4.876191 29.257142 9.752381 68.266667 17.066667 134.095238 19.504762 192.609524 0 4.87619 0 9.752381-4.87619 17.066667-4.87619 7.314286-12.190476 17.066667-19.504762 21.942857-7.314286 4.87619-19.504762 9.752381-24.380953 12.190476-9.752381 7.314286-9.752381 17.066667 0 17.066667 19.504762-2.438095 41.447619-4.87619 56.076191-26.819048 4.87619-7.314286 9.752381-24.380952 9.752381-34.133333 2.438095-63.390476 0-124.342857-9.752381-170.666667 0-4.87619-2.438095-14.628571-2.438095-17.066666 2.438095-2.438095 7.314286 0 9.752381-2.438096 2.438095-2.438095-17.066667-26.819048-21.942857-39.009523 0-2.438095-2.438095-4.87619-2.438096-4.876191z m-197.485714 0l-4.87619 4.876191c-4.87619 17.066667-7.314286 31.695238-4.876191 41.447619 14.628571 70.704762 26.819048 134.095238 24.380952 202.361904 7.314286 0 14.628571-14.628571 17.066667-29.257142 2.438095-19.504762 0-31.695238-2.438095-43.885715 0-12.190476-12.190476-107.27619-17.066667-117.028571-2.438095-17.066667 12.190476-2.438095 9.752381-12.190476-4.87619-12.190476-19.504762-29.257143-21.942857-41.447619v-4.876191z m-482.742857 2.438095c-2.438095 0-2.438095 2.438095-4.876191 4.876191v4.87619s-4.87619 0-2.438095-4.87619c0-2.438095 0-2.438095-2.438095-2.438095h-2.438095c-2.438095 0-2.438095 0-2.438096 2.438095v2.438095c0 2.438095 0 2.438095-2.438095 2.438095h-2.438095s-2.438095 0-2.438095-2.438095v-2.438095s-2.438095 0-2.438096-2.438095c-2.438095-2.438095-2.438095 2.438095-2.438095 4.87619 0 0 0 9.752381 7.314286 14.628572 9.752381 4.87619 26.819048 2.438095 26.819048-12.190477v-7.314285c-4.87619-2.438095-4.87619-2.438095-7.314286-2.438096z m124.342857 0c-2.438095 0-4.87619 0-7.314286 2.438096-7.314286 4.87619-7.314286 14.628571-2.438095 21.942857 4.87619 2.438095 9.752381 7.314286 7.314286 9.752381-12.190476 14.628571-48.761905 36.571429-48.761905 41.447619h26.819048c7.314286-2.438095 41.447619-43.885714 41.447619-43.885715l-4.876191-4.87619c-2.438095-2.438095-2.438095-2.438095 0-4.87619 9.752381-4.87619 4.87619-17.066667 2.438095-21.942858h-14.628571z m321.828571 0l-4.87619 4.876191c-4.87619 7.314286-7.314286 19.504762-7.314286 29.257143 9.752381 63.390476 12.190476 117.028571 17.066667 180.419047 0 4.87619 0 14.628571-4.876191 17.066667-14.628571 14.628571-36.571429 34.133333-58.514285 43.885714-2.438095 2.438095 7.314286 14.628571 17.066666 14.628572 19.504762-2.438095 36.571429-12.190476 51.2-41.447619 4.87619-7.314286 12.190476-19.504762 12.190477-31.695238 2.438095-63.390476-2.438095-112.152381-12.190477-158.476191v-12.190476c2.438095-2.438095 4.87619 0 7.314286-2.438095s-9.752381-31.695238-17.066667-43.885715c2.438095 2.438095 2.438095 0 0 0z m-499.809523 2.438096c-2.438095 0-4.87619 2.438095-7.314286 4.87619v29.257143c4.87619 17.066667 4.87619 29.257143 7.314286 46.323809 0 21.942857-12.190476 9.752381-12.190477-2.438095 2.438095-14.628571 2.438095-36.571429 0-41.447619s-4.87619-7.314286-9.752381-7.314286-14.628571 12.190476-17.066666 31.695239c0 0-2.438095 9.752381-2.438095 19.504761-2.438095 9.752381-7.314286 17.066667-12.190477-2.438095-4.87619-14.628571-7.314286-46.32381-12.190476-39.009524-2.438095 26.819048-4.87619 73.142857 17.066667 78.019048 26.819048 2.438095 12.190476-46.32381 21.942857-53.638095 2.438095-4.87619 4.87619-4.87619 4.87619 0v41.447619c0 12.190476 7.314286 17.066667 14.628572 19.504762 7.314286 0 12.190476 0 14.628571 7.314285 0 24.380952 2.438095 46.32381 2.438096 70.704762 0 0 17.066667 4.87619 17.066666-39.009523 0-26.819048-4.87619-48.761905-2.438095-53.638096 0-4.87619 7.314286-4.87619 9.752381-2.438095 7.314286 4.87619 9.752381 12.190476 21.942857 9.752381 17.066667-4.87619 26.819048-12.190476 26.819048-24.380952s-2.438095-24.380952-7.314286-36.571429c0-2.438095-2.438095-7.314286-2.438095-9.752381 2.438095 4.87619 7.314286 4.87619 9.752381 0-2.438095-9.752381-7.314286-17.066667-14.628572-21.942857-4.87619-4.87619-14.628571-4.87619-17.066666 7.314286s4.87619 26.819048 14.628571 39.009524c2.438095 4.87619 4.87619 12.190476 2.438095 19.504761-4.87619 2.438095-9.752381 2.438095-14.628571-2.438095 0 0-12.190476-9.752381-12.190476-12.190476 2.438095-21.942857 0-24.380952 0-31.695238-2.438095-9.752381-4.87619-12.190476-9.752381-17.066667-2.438095-2.438095-7.314286-2.438095-9.752381 0-4.87619 9.752381-2.438095 31.695238 0 41.447619s7.314286 14.628571 4.87619 14.628572c-2.438095 4.87619-4.87619 4.87619-7.314285-2.438096-4.87619-12.190476-4.87619-29.257143-4.876191-39.009523 0-9.752381-2.438095-31.695238-9.752381-36.571429-2.438095-4.87619-2.438095-7.314286-4.87619-4.87619z m95.085714 0c-2.438095 0-2.438095 0-4.876191 2.438095-4.87619 2.438095-12.190476 7.314286-9.752381 17.066667 7.314286 41.447619 12.190476 73.142857 17.066667 114.590476 0 4.87619-2.438095 12.190476-7.314286 9.752381-9.752381-4.87619-12.190476-17.066667-26.819047-17.066667-9.752381 0-24.380952 12.190476-24.380953 24.380952-2.438095 9.752381-2.438095 19.504762 0 26.819048 7.314286 9.752381 17.066667 7.314286 24.380953 7.314286 7.314286-2.438095 12.190476-9.752381 14.628571-7.314286 2.438095 2.438095 0 24.380952-31.695238 41.447619-19.504762 9.752381-34.133333 9.752381-41.447619-4.87619-4.87619-9.752381 0-46.32381-12.190476-39.009524-36.571429 95.085714 85.333333 107.27619 99.961905 4.87619 0-2.438095 2.438095-4.87619 4.87619-4.87619l2.438095 2.438095c-2.438095 95.085714-95.085714 99.961905-112.152381 70.704762-4.87619-7.314286-4.87619-21.942857-4.87619-31.695238 0-4.87619-2.438095-9.752381-4.876191-9.752381-4.87619-2.438095-9.752381 4.87619-9.75238 17.066667-2.438095 9.752381 0 12.190476 0 21.942857 4.87619 75.580952 124.342857 41.447619 143.847619-19.504762 9.752381-31.695238 0-56.07619 2.438095-58.514286 12.190476 12.190476 29.257143 2.438095 31.695238-2.438095 2.438095-2.438095 4.87619-2.438095 7.314286 0 9.752381 7.314286 24.380952 2.438095 29.257142-7.314286 2.438095-12.190476 2.438095-24.380952 4.876191-36.571428-4.87619 2.438095-9.752381 2.438095-12.190476 4.87619v2.438095c0 2.438095 0 7.314286-2.438095 9.752381-2.438095 0-4.87619 0-4.876191-2.438095-2.438095-12.190476-14.628571-14.628571-21.942857 4.87619-4.87619 4.87619-14.628571 4.87619-14.628572 0 0-14.628571-4.87619-14.628571-14.628571-9.752381-2.438095-26.819048-7.314286-51.2-9.752381-78.019047 4.87619 0 9.752381 2.438095 12.190476-2.438095-4.87619-14.628571-14.628571-41.447619-19.504762-46.32381-2.438095-4.87619-4.87619-4.87619-4.87619-4.87619z m368.152381 0c-4.87619 0-9.752381 2.438095-7.314286 9.752381 0 2.438095 9.752381 14.628571 12.190476 19.504761 2.438095 9.752381-2.438095 17.066667 0 19.504762s7.314286-9.752381 9.752381-19.504762c0-9.752381-4.87619-26.819048-14.628571-29.257142z m-287.695238 9.752381c2.438095 0 4.87619 2.438095 4.87619 4.87619 2.438095 2.438095 0 4.87619-2.438095 7.314286-2.438095 0-4.87619-2.438095-7.314286-4.876191 2.438095-4.87619 2.438095-7.314286 4.876191-7.314285z m531.504762 14.628571c-4.87619 0-9.752381 2.438095-7.314286 9.752381 0 2.438095 9.752381 14.628571 9.752381 21.942857 2.438095 4.87619-2.438095 19.504762 0 21.942857 2.438095 2.438095 7.314286-9.752381 7.314286-21.942857 4.87619-7.314286 0-29.257143-9.752381-31.695238 2.438095 0 2.438095 0 0 0z m-292.571429 4.87619v4.876191c0 4.87619 2.438095 7.314286 2.438095 12.190476-2.438095-4.87619-7.314286-7.314286-7.314285-9.752381-7.314286-7.314286 0-4.87619 4.87619-7.314286z m65.828572 34.133334c-2.438095 0-2.438095 2.438095-4.876191 4.87619v4.876191s-4.87619 0-2.438095-4.876191c0-2.438095 0-2.438095-2.438095-2.438095h-2.438096c-2.438095 0-2.438095 0-2.438095 2.438095v2.438096c0 2.438095 0 2.438095-2.438095 2.438095h-2.438095s-2.438095 0-2.438096-2.438095v-2.438096h-2.438095c-4.87619 0-4.87619 4.87619-4.87619 7.314286 0 0 0 9.752381 7.314285 14.628571 9.752381 4.87619 26.819048 2.438095 26.819048-12.190476v-7.314285c0-7.314286-2.438095-7.314286-4.87619-7.314286z m-309.638096 2.438095s-2.438095 0-4.87619 2.438095c-7.314286 4.87619-12.190476 17.066667-7.314286 24.380953s12.190476 4.87619 12.190476 4.87619c7.314286 0 12.190476-14.628571 12.190476-14.628571s0-4.87619-9.75238 4.87619c-4.87619 0-4.87619 0-4.876191-2.438095 0-4.87619 0-7.314286 2.438095-12.190476 4.87619-4.87619 2.438095-4.87619 0-7.314286z m438.857143 2.438095c-4.87619 0-9.752381 2.438095-9.752381 9.752381 0 2.438095 2.438095 4.87619 2.438095 9.752381 0 2.438095-2.438095 2.438095-7.314285 0l-2.438096-4.87619c-2.438095-2.438095-7.314286 0-12.190476 2.438095-2.438095 2.438095-2.438095 9.752381 0 14.628571 4.87619 9.752381 21.942857 26.819048 31.695238 26.819048 0-9.752381 0-19.504762 2.438096-26.819048 0-2.438095 0-4.87619 2.438095-7.314285 2.438095 0 7.314286 2.438095 7.314286 0 0-4.87619-2.438095-14.628571-4.876191-17.066667-4.87619-4.87619-7.314286-7.314286-9.752381-7.314286zM682.666667 331.580952c-2.438095 0-2.438095 2.438095-4.876191 4.876191-4.87619 4.87619-4.87619 7.314286-4.87619 17.066667 0 0 7.314286 21.942857 14.628571 36.571428 4.87619 14.628571 7.314286 31.695238 4.876191 48.761905-9.752381 21.942857-29.257143 41.447619-48.761905 51.2-9.752381 2.438095-17.066667 2.438095-19.504762 0-4.87619-4.87619-4.87619-9.752381-4.876191-12.190476 17.066667-12.190476 34.133333-19.504762 48.761905-51.2 4.87619-12.190476 4.87619-19.504762 2.438095-36.571429-2.438095-7.314286-4.87619-12.190476-7.314285-17.066667 2.438095-2.438095 9.752381 4.87619 12.190476 0-2.438095-9.752381-7.314286-19.504762-14.628571-26.819047-4.87619-4.87619-12.190476-4.87619-17.066667 0-4.87619 2.438095-7.314286 14.628571-4.876191 24.380952 2.438095 7.314286 12.190476 9.752381 17.066667 24.380953 0 0 2.438095 12.190476 0 17.066666-2.438095 7.314286-34.133333 34.133333-36.571429 34.133334v-4.876191c0-4.87619 2.438095-14.628571 2.438096-17.066667-9.752381 7.314286-14.628571 26.819048-17.066667 34.133334-26.819048 19.504762-58.514286 31.695238-75.580952 51.2-9.752381 14.628571 63.390476-17.066667 70.704762-19.504762 2.438095 2.438095 2.438095 7.314286 7.314285 12.190476 7.314286 9.752381 24.380952 17.066667 39.009524 12.190476 26.819048-9.752381 41.447619-26.819048 56.076191-46.323809 2.438095-2.438095 4.87619-4.87619 9.752381-2.438096 9.752381 24.380952 41.447619 39.009524 80.457142 41.44762 9.752381-12.190476 4.87619-17.066667 0-19.504762 0 0-19.504762-7.314286-21.942857-14.628572-2.438095-7.314286 2.438095-12.190476 12.190476-17.066666 24.380952-2.438095 48.761905-7.314286 73.142858-14.628572 0-7.314286 4.87619-19.504762 7.314285-24.380952 2.438095-2.438095 2.438095-4.87619 4.876191-4.876191l-4.876191-2.438095H780.190476s2.438095 0 2.438095-2.438095c19.504762-2.438095 53.638095-7.314286 56.076191-41.447619 0-17.066667-7.314286-29.257143-29.257143-31.695238-14.628571 0-26.819048 17.066667-24.380952 31.695238 0 4.87619 2.438095 12.190476-2.438096 14.628571-29.257143 2.438095-60.952381 21.942857-63.390476 34.133333-2.438095 0-4.87619-4.87619-4.87619-7.314285 0-21.942857-9.752381-48.761905-19.504762-68.266667-7.314286-7.314286-9.752381-7.314286-12.190476-7.314286 2.438095 0 0 0 0 0z m78.019047 12.190477c-2.438095 0-2.438095 2.438095-4.87619 4.87619v4.876191s-4.87619 0-2.438095-4.876191c0-2.438095 0-2.438095-2.438096-2.438095h-2.438095c-2.438095 0-2.438095 0-2.438095 2.438095v2.438095c0 2.438095 0 2.438095-2.438095 2.438096h-2.438096s-2.438095 0-2.438095-2.438096v-2.438095h-2.438095c-4.87619 0-4.87619 4.87619-4.876191 7.314286 0 0 0 9.752381 7.314286 14.628571 9.752381 4.87619 31.695238 2.438095 26.819048-12.190476v-7.314286c-2.438095-7.314286-4.87619-9.752381-4.876191-7.314285z m309.638096 12.190476c-2.438095 0-2.438095 0 0 0 0 0-43.885714 29.257143-43.885715 31.695238-4.87619 4.87619-2.438095 17.066667 0 14.628571 2.438095 0 46.32381-26.819048 46.32381-31.695238 0 0 0-14.628571-2.438095-14.628571z m-270.628572 4.87619c2.438095 0 4.87619 0 7.314286 2.438095s4.87619 4.87619 4.87619 7.314286c-2.438095 2.438095-4.87619 2.438095-7.314285 0s-4.87619-4.87619-4.876191-7.314286c-2.438095-2.438095-2.438095-2.438095 0-2.438095-2.438095 0-2.438095 0 0 0z m-373.028571 7.314286c-21.942857 0-53.638095 29.257143-56.076191 43.885714 24.380952-12.190476 46.32381-21.942857 70.704762-34.133333-4.87619-4.87619 0-9.752381-14.628571-9.752381z m70.704762 9.752381c2.438095 0 4.87619 0 4.87619 4.87619 0 2.438095 0 4.87619-2.438095 7.314286h-7.314286c-2.438095 0-4.87619 0-4.87619-2.438095s2.438095-4.87619 2.438095-7.314286c4.87619-2.438095 4.87619-2.438095 7.314286-2.438095z m563.2 7.314286c-4.87619 0-7.314286 4.87619-4.876191 9.752381 0 2.438095 4.87619 14.628571 7.314286 21.942857 2.438095 4.87619-2.438095 17.066667 0 19.504762 2.438095 2.438095 9.752381-7.314286 9.752381-19.504762 0-4.87619-2.438095-29.257143-12.190476-31.695238 2.438095 0 2.438095 0 0 0z m-477.866667 21.942857c-2.438095 0-7.314286 2.438095-4.876191 7.314285 0 2.438095 9.752381 7.314286 9.752381 17.066667 2.438095 2.438095-2.438095 14.628571 0 14.628572s7.314286-7.314286 7.314286-14.628572c0-4.87619-2.438095-19.504762-9.752381-21.942857 0-2.438095 0-2.438095-2.438095-2.438095z m143.847619 19.504762c9.752381 2.438095 21.942857 2.438095 34.133333 4.87619 9.752381 0 14.628571 7.314286 4.876191 9.752381s-17.066667 4.87619-17.066667 17.066667v9.752381c-2.438095 0-4.87619-2.438095-7.314286-2.438096-4.87619-4.87619-19.504762-12.190476-21.942857-31.695238-2.438095-2.438095 2.438095-4.87619 7.314286-7.314285z m-351.085714 17.066666l-2.438096 2.438096c-12.190476 21.942857-14.628571 51.2-7.314285 60.952381 4.87619 4.87619 9.752381 7.314286 14.628571 4.87619 7.314286-2.438095 12.190476-19.504762 9.752381-26.819048-2.438095-4.87619-4.87619-4.87619-7.314286-2.438095-4.87619 12.190476-7.314286 4.87619-9.752381-2.438095 0-12.190476 0-24.380952 2.438096-34.133333 2.438095-2.438095 2.438095-2.438095 0-2.438096z m448.609523 26.819048c-2.438095 0-12.190476 7.314286-14.628571 9.752381s-2.438095 2.438095 0 4.87619 4.87619 2.438095 7.314286 0c4.87619 0 4.87619 2.438095 4.87619 7.314286-2.438095 4.87619 0 7.314286 0 7.314286s2.438095 2.438095 7.314286 0c9.752381-2.438095 14.628571-7.314286 26.819048-9.752381 2.438095 0 2.438095-9.752381-2.438096-9.752381-7.314286 0-12.190476 0-19.504762 4.87619-4.87619 4.87619-4.87619 2.438095-4.87619 0 0-4.87619 2.438095-9.752381 2.438095-14.628571 0 2.438095-2.438095 0-7.314286 0z m287.695239 9.752381h-4.876191c-2.438095 0-4.87619 2.438095-4.87619 4.87619 0 4.87619 2.438095 4.87619 7.314285 7.314286 2.438095 2.438095 2.438095 4.87619 0 7.314286l-7.314285 7.314286c-2.438095 2.438095-2.438095 7.314286 2.438095 7.314285 7.314286 2.438095 26.819048-9.752381 26.819047-9.752381 2.438095-2.438095 2.438095-7.314286 2.438096-7.314285-2.438095-2.438095-4.87619 0-7.314286 0s-4.87619 0-2.438095-4.876191c-2.438095 0-2.438095-2.438095-2.438095-4.87619 2.438095-2.438095 0-4.87619-4.876191-4.876191 0-2.438095-2.438095-2.438095-4.87619-2.438095z m-119.466667 243.809524c-12.190476 2.438095-12.190476 17.066667-4.876191 24.380952-141.409524 0-355.961905-2.438095-402.285714-2.438095-26.819048 0-107.27619-2.438095-109.714286-2.438095 17.066667 26.819048 43.885714 31.695238 75.580953 31.695238h433.980952c-4.87619 9.752381 0 26.819048 4.876191 29.257143 4.87619 2.438095 7.314286-2.438095 9.752381-4.876191 9.752381 0 58.514286 2.438095 63.390476 0 2.438095 4.87619 7.314286 9.752381 12.190476 7.314286 9.752381-2.438095 19.504762-2.438095 19.504762-24.380953 0 0 0-36.571429-24.380952-34.133333-4.87619 0-21.942857 2.438095-21.942858 2.438095-17.066667-2.438095-31.695238-2.438095-51.2-2.438095 2.438095-2.438095 4.87619-12.190476 0-14.628571 0 0-2.438095-2.438095-4.87619 0 2.438095-4.87619 0-9.752381 0-9.752381z m9.752381 51.2h60.952381c2.438095 2.438095 2.438095 9.752381 0 9.752381h-17.066667c-2.438095-4.87619-12.190476-4.87619-14.628571 0h-26.819048c-4.87619-2.438095-4.87619-9.752381-2.438095-9.752381z" fill="#FFFFFF" p-id="13353"></path></svg>