<?xml version="1.0" standalone="no"?><!DOCTYPE svg PUBLIC "-//W3C//DTD SVG 1.1//EN" "http://www.w3.org/Graphics/SVG/1.1/DTD/svg11.dtd"><svg t="1651398907043" class="icon" viewBox="0 0 1560 1024" version="1.1" xmlns="http://www.w3.org/2000/svg" p-id="5203" xmlns:xlink="http://www.w3.org/1999/xlink" width="304.6875" height="200"><defs><style type="text/css">@font-face { font-family: feedback-iconfont; src: url("//at.alicdn.com/t/font_1031158_u69w8yhxdu.woff2?t=1630033759944") format("woff2"), url("//at.alicdn.com/t/font_1031158_u69w8yhxdu.woff?t=1630033759944") format("woff"), url("//at.alicdn.com/t/font_1031158_u69w8yhxdu.ttf?t=1630033759944") format("truetype"); }
</style></defs><path d="M141.400131 0h1275.03911C1496.89104 0 1560.277305 63.386266 1560.277305 138.962198v746.007586c0 78.013865-63.386266 138.962198-141.40013 138.962198H141.400131C63.386266 1023.931982 0 960.545716 0 884.969784V138.962198C0 63.386266 63.386266 0 141.400131 0z" fill="#FDEF42" p-id="5204"></path><path d="M1560.277305 129.210464v755.75932V138.962198v-9.751734z" fill="#57A863" p-id="5205"></path><path d="M141.400131 1023.931982h377.87966V0H141.400131C63.386266 0 0 63.386266 0 138.962198v748.445519c0 75.575932 63.386266 138.962198 141.400131 136.524265z" fill="#00853F" p-id="5206"></path><path d="M1418.877175 1023.931982H1040.997515V0h377.87966C1496.89104 0 1560.277305 63.386266 1560.277305 138.962198v748.445519c0 75.575932-63.386266 138.962198-141.40013 136.524265z" fill="#E31B23" p-id="5207"></path><path d="M780.138653 358.376194l39.006932 117.020797h121.896665l-99.955265 73.137999 39.006933 117.020798-99.955265-73.137999-99.955265 73.137999 39.006932-117.020798-99.955264-73.137999h121.896664z" fill="#00853F" p-id="5208"></path></svg>