<?xml version="1.0" standalone="no"?><!DOCTYPE svg PUBLIC "-//W3C//DTD SVG 1.1//EN" "http://www.w3.org/Graphics/SVG/1.1/DTD/svg11.dtd"><svg t="1651399402366" class="icon" viewBox="0 0 1560 1024" version="1.1" xmlns="http://www.w3.org/2000/svg" p-id="12852" xmlns:xlink="http://www.w3.org/1999/xlink" width="304.6875" height="200"><defs><style type="text/css">@font-face { font-family: feedback-iconfont; src: url("//at.alicdn.com/t/font_1031158_u69w8yhxdu.woff2?t=1630033759944") format("woff2"), url("//at.alicdn.com/t/font_1031158_u69w8yhxdu.woff?t=1630033759944") format("woff"), url("//at.alicdn.com/t/font_1031158_u69w8yhxdu.ttf?t=1630033759944") format("truetype"); }
</style></defs><path d="M141.409524 0h1275.123809C1496.990476 0 1560.380952 63.390476 1560.380952 138.971429v746.057142c0 78.019048-63.390476 138.971429-141.409523 138.971429H141.409524C63.390476 1024 0 960.609524 0 885.028571V138.971429C0 63.390476 63.390476 0 141.409524 0z" fill="#E30A17" p-id="12853"></path><path d="M641.219048 512m-277.942858 0a277.942857 277.942857 0 1 0 555.885715 0 277.942857 277.942857 0 1 0-555.885715 0Z" fill="#FFFFFF" p-id="12854"></path><path d="M699.733333 512m-231.619047 0a231.619048 231.619048 0 1 0 463.238095 0 231.619048 231.619048 0 1 0-463.238095 0Z" fill="#E30A17" p-id="12855"></path><path d="M1055.695238 582.704762l-75.580952-29.257143-51.2 65.828571 4.87619-82.895238-78.019047-29.257142 80.457142-21.942858 2.438096-80.457142 46.323809 68.266666 78.019048-21.942857-51.2 63.390476z" fill="#FFFFFF" p-id="12856"></path></svg>