<?xml version="1.0" standalone="no"?><!DOCTYPE svg PUBLIC "-//W3C//DTD SVG 1.1//EN" "http://www.w3.org/Graphics/SVG/1.1/DTD/svg11.dtd"><svg t="1651398665011" class="icon" viewBox="0 0 1560 1024" version="1.1" xmlns="http://www.w3.org/2000/svg" p-id="3758" xmlns:xlink="http://www.w3.org/1999/xlink" width="304.6875" height="200"><defs><style type="text/css">@font-face { font-family: feedback-iconfont; src: url("//at.alicdn.com/t/font_1031158_u69w8yhxdu.woff2?t=1630033759944") format("woff2"), url("//at.alicdn.com/t/font_1031158_u69w8yhxdu.woff?t=1630033759944") format("woff"), url("//at.alicdn.com/t/font_1031158_u69w8yhxdu.ttf?t=1630033759944") format("truetype"); }
</style></defs><path d="M43.885714 270.628571a258.438095 234.057143 0 1 0 516.876191 0 258.438095 234.057143 0 1 0-516.876191 0Z" fill="#FACF16" p-id="3759"></path><path d="M0 682.666667h1560.380952v114.590476H0z" fill="#F5F7FA" p-id="3760"></path><path d="M1557.942857 909.409524H2.438095C14.628571 975.238095 73.142857 1024 141.409524 1024h1277.561905c68.266667 0 126.780952-48.761905 138.971428-114.590476z" fill="#FFFFFF" p-id="3761"></path><path d="M577.828571 114.590476h980.114286C1545.752381 48.761905 1487.238095 0 1416.533333 0H141.409524C63.390476 0 0 63.390476 0 138.971429v429.104761h1560.380952v-114.590476H577.828571V341.333333H1560.380952V226.742857H577.828571V114.590476z m-95.085714 248.685714c-34.133333-34.133333-36.571429 4.87619-107.27619-24.380952l-19.504762-29.257143s-2.438095 0-2.438095-2.438095c0 0 2.438095 0 2.438095 2.438095l-2.438095-2.438095 82.895238 119.466667-85.333334-58.514286c0 60.952381 41.447619 58.514286 19.504762 104.838095 0-48.761905-29.257143-21.942857-58.514286-90.209524l7.314286-34.133333v-2.438095 2.438095-2.438095L292.571429 490.057143l-21.942858-99.961905c-43.885714 43.885714-12.190476 70.704762-60.952381 85.333333 34.133333-34.133333-4.87619-36.571429 24.380953-104.838095l29.257143-19.504762s0-2.438095 2.438095-2.438095c0 0 0 2.438095-2.438095 2.438095l2.438095-2.438095-121.904762 82.895238 60.952381-85.333333c-60.952381 0-60.952381 41.447619-104.838095 17.066666 48.761905 0 21.942857-29.257143 92.647619-58.514285l34.133333 4.87619h2.438095-2.438095 2.438095l-146.285714-26.819047 102.4-19.504762C141.409524 221.866667 114.590476 251.12381 97.52381 202.361905c34.133333 34.133333 36.571429-4.87619 107.27619 24.380952l19.504762 29.257143s2.438095 0 2.438095 2.438095c0 0-2.438095 0-2.438095-2.438095l2.438095 2.438095-85.333333-119.466666 85.333333 58.514285c0-60.952381-41.447619-58.514286-19.504762-104.838095 0 48.761905 29.257143 21.942857 58.514286 90.209524L260.87619 219.428571v2.438096V219.428571v2.438096l26.819048-143.847619 19.504762 102.4c43.885714-43.885714 12.190476-70.704762 60.952381-85.333334-34.133333 34.133333 4.87619 36.571429-24.380952 104.838096L316.952381 219.428571s0 2.438095-2.438095 2.438096L316.952381 219.428571h-2.438095l121.904762-82.895238-60.952381 85.333334c60.952381 0 60.952381-41.447619 104.838095-17.066667-48.761905 0-21.942857 29.257143-92.647619 58.514286l-34.133333-4.876191h-2.438096 2.438096-2.438096l146.285715 26.819048-102.4 19.504762c43.885714 41.447619 73.142857 12.190476 87.771428 58.514285z" fill="#F5F7FA" p-id="3762"></path><path d="M1560.380952 138.971429v-24.380953h-2.438095c2.438095 7.314286 2.438095 14.628571 2.438095 24.380953z" fill="#0038A8" p-id="3763"></path><path d="M577.828571 114.590476v114.590476H1560.380952V138.971429c0-9.752381 0-17.066667-2.438095-24.380953H577.828571zM577.828571 341.333333H1560.380952v114.590477H577.828571zM0 568.07619h1560.380952V682.666667H0zM0 885.028571v24.380953h2.438095c-2.438095-7.314286-2.438095-14.628571-2.438095-24.380953zM1560.380952 909.409524v-24.380953 24.380953z" fill="#0038A8" p-id="3764"></path><path d="M0 885.028571c0 9.752381 0 17.066667 2.438095 24.380953h1555.504762c2.438095-7.314286 2.438095-17.066667 2.438095-24.380953v-87.771428H0v87.771428z" fill="#0038A8" p-id="3765"></path></svg>