<svg id="Capa_1" enable-background="new 0 0 498.772 498.772" height="512" viewBox="0 0 498.772 498.772" width="512" xmlns="http://www.w3.org/2000/svg"><g><path d="m413.352 68.962c-17.808-9.428-57.095-15.305-82.748-25.084 10.833 24.002-173.222 24.025-162.443.018-17.467 6.678-41.18 11.539-59.838 16.955 20.167 34.347 13.097 390.83 13.097 390.83 0 12.96 86.86 23.74 148.5 23.74 42.051 0 90.87-15.018 117.432-22.322v-249.64l38.411 14.917 58.227-80.223c-21.01-24.632-54.842-60.829-70.638-69.191z" fill="#f8e883"/><path d="m269.386 465.422c-61.64 0-137.966-10.78-137.966-23.74 0 0 0-212.365 0-267.52 0-47.985-10.371-86.141-23.097-113.31-8.634 2.506-17.274 5.13-22.903 8.11-15.795 8.362-49.628 44.559-70.639 69.191l23.031 51.042 44.071 29.884 29.537-15.62v258.223c0 12.96 76.326 23.74 137.966 23.74s137.966-10.78 137.966-23.74v-8.582c-26.562 7.304-75.915 12.322-117.966 12.322z" fill="#eec06b"/><path d="m402.352 182.014c0-2.852 0-6.018 0-7.933 0-47.907 4.138-74.85 4.247-75.101 1.689-3.781-.007-8.217-3.789-9.906-3.784-1.691-8.218.008-9.907 3.789-.533 1.192-5.552 29.81-5.552 81.218v29.377l29.537 15.62 23.837-16.771z" fill="#eec06b"/><path d="m187.076 67.443c-1.58-3.829-5.964-5.653-9.794-4.071-12.39 5.114-27.898 8.992-42.896 12.743-6.394 1.599-12.434 3.112-17.954 4.646-2.031 5.761 0 11.701 4.53 14.313 5.292-1.461 11.106-2.917 17.063-4.407 14.799-3.701 35.403-9.476 48.81-15.01 3.827-1.58 1.821-4.386.241-8.214z" fill="#5a86cc"/><path d="m95.511 88.294c-18.737 9.919-57.325 56.066-66.633 67.881-2.563 3.254-2.004 7.97 1.25 10.533 1.375 1.083 7.573 2.506 9.053.628 14.222-18.054 49.552-58.481 63.348-65.785 4.245-2.248 10.791-4.368 18.432-6.477-1.411-4.985-2.928-9.758-4.53-14.313-8.413 2.336-15.608 4.721-20.92 7.533z" fill="#3b68b0"/><path d="m468.644 166.708c3.254-2.563 3.813-7.279 1.25-10.533-9.308-11.814-47.896-57.962-66.633-67.881-8.797-4.657-22.735-8.143-38.874-12.179-14.998-3.751-30.507-7.629-42.896-12.743-3.83-1.582-8.215.242-9.794 4.071-1.581 3.828-3.586 6.634.242 8.214 13.407 5.534 34.01 11.309 48.81 15.01 14.558 3.641 28.309 7.079 35.495 10.884 13.796 7.304 49.126 47.731 63.348 65.785 1.479 1.878 7.677.455 9.052-.628z" fill="#5a86cc"/><path d="m495.553 152.166c-3.037-3.855-6.999-8.663-11.563-14.013l-50.168 60.504 2.718 18.065 24.104-3.88 34.674-41.817c4.516-5.446 4.613-13.302.235-18.859z" fill="#5a86cc"/><path d="m416.889 219.079 15.443 8.167c6.343 3.73 14.454 2.308 19.151-3.356l9.161-11.049-26.822-14.185z" fill="#3b68b0"/><path d="m3.219 152.166c-4.378 5.557-4.281 13.413.235 18.858l43.836 52.866c4.696 5.664 12.808 7.085 19.15 3.356l15.443-8.167-67.102-80.926c-4.563 5.35-8.525 10.158-11.562 14.013z" fill="#3b68b0"/><path d="m259.908 108.426c23.834-12.974 79.236-45.626 70.696-64.548-9.611-3.664-17.313-7.874-21.249-13.026h-119.938c-3.943 5.161-11.66 9.375-21.255 13.044-8.497 18.924 46.877 51.56 70.703 64.529 6.558 3.571 14.484 3.571 21.043.001z" fill="#5a86cc"/><path d="m309.355 30.852c7.999 10.471-59.969 46.121-59.969 46.121s-67.969-35.651-59.969-46.121 26.849-17.502 59.969-17.502 51.97 7.032 59.969 17.502z" fill="#c8c3ca"/><circle cx="323.42" cy="174.454" fill="#f3f1f4" r="30"/><path d="m323.42 151.954 5-7.5-5-7.5c-20.678 0-37.5 16.822-37.5 37.5l7.5 5 7.5-5c0-12.406 10.093-22.5 22.5-22.5z" fill="#eec06b"/><path d="m323.42 136.954v15c6.203 0 11.828 2.523 15.902 6.598l8.311-2.311 2.291-8.291c-6.79-6.79-16.165-10.996-26.504-10.996z" fill="#5a86cc"/><path d="m339.322 158.552c4.074 4.074 6.598 9.699 6.598 15.902l7.5 5 7.5-5c0-10.339-4.206-19.714-10.996-26.504z" fill="#d16161"/><path d="m323.42 196.954c-12.407 0-22.5-10.094-22.5-22.5h-15c0 20.678 16.822 37.5 37.5 37.5s37.5-16.822 37.5-37.5h-15c0 12.406-10.093 22.5-22.5 22.5z" fill="#a29aa5"/></g></svg>